<svg xmlns="http://www.w3.org/2000/svg" viewBox="40 0 730 831" width="730" height="831">
<defs>
<marker id="arrowhead" markerWidth="10" markerHeight="7" refX="10" refY="3.5" orient="auto"><polygon points="0 0, 10 3.5, 0 7" fill="#1e3a5f"/></marker>
<marker id="arrowhead-rev" markerWidth="10" markerHeight="7" refX="0" refY="3.5" orient="auto"><polygon points="10 0, 0 3.5, 10 7" fill="#1e3a5f"/></marker>
</defs>
<rect x="40" y="0" width="730" height="831" fill="#ffffff"/>
<text x="400" y="20" fill="#1e40af" font-size="28" font-family='"Cascadia Code", "Fira Code", monospace' text-anchor="middle" opacity="1">
<tspan x="400" dy="28">Request Routing &amp; Data Flow</tspan>
</text>
<ellipse cx="400" cy="105" rx="60" ry="25" fill="#fed7aa" stroke="#c2410c" stroke-width="2" opacity="1"/>
<text x="400" y="93" fill="#c2410c" font-size="14" font-family='"Cascadia Code", "Fira Code", monospace' text-anchor="middle" opacity="1">
<tspan x="400" dy="14">HTTP Client</tspan>
</text>
<path d="M400 132 L400 170" fill="none" stroke="#c2410c" stroke-width="2" marker-end="url(#arrowhead)" opacity="1"/>
<rect x="60" y="172" width="680" height="260" rx="8" fill="#dbeafe" stroke="#1e3a5f" stroke-width="2" stroke-dasharray="8 4" opacity="0.3"/>
<text x="75" y="180" fill="#1e40af" font-size="15" font-family='"Cascadia Code", "Fira Code", monospace' text-anchor="start" opacity="1">
<tspan x="75" dy="15">HTTP Server (FastAPI)</tspan>
</text>
<rect x="80" y="210" width="160" height="70" rx="8" fill="#3b82f6" stroke="#1e3a5f" stroke-width="2" opacity="1"/>
<text x="160" y="225" fill="#ffffff" font-size="13" font-family='"Cascadia Code", "Fira Code", monospace' text-anchor="middle" opacity="1">
<tspan x="160" dy="13">Native API</tspan>
<tspan x="160" dy="16.25">/generate /encode</tspan>
</text>
<rect x="280" y="210" width="240" height="70" rx="8" fill="#ddd6fe" stroke="#6d28d9" stroke-width="2" opacity="1"/>
<text x="400" y="220" fill="#6d28d9" font-size="12" font-family='"Cascadia Code", "Fira Code", monospace' text-anchor="middle" opacity="1">
<tspan x="400" dy="12">OpenAI-compatible API</tspan>
<tspan x="400" dy="15">/v1/completions</tspan>
<tspan x="400" dy="15">/v1/chat/completions</tspan>
</text>
<rect x="560" y="210" width="160" height="70" rx="8" fill="#93c5fd" stroke="#1e3a5f" stroke-width="2" opacity="1"/>
<text x="640" y="225" fill="#1e3a5f" font-size="13" font-family='"Cascadia Code", "Fira Code", monospace' text-anchor="middle" opacity="1">
<tspan x="640" dy="13">SageMaker</tspan>
<tspan x="640" dy="16.25">/invocations</tspan>
</text>
<rect x="290" y="300" width="220" height="55" rx="8" fill="#ddd6fe" stroke="#6d28d9" stroke-width="1" opacity="1"/>
<text x="400" y="308" fill="#6d28d9" font-size="13" font-family='"Cascadia Code", "Fira Code", monospace' text-anchor="middle" opacity="1">
<tspan x="400" dy="13">OpenAIServingBase</tspan>
<tspan x="400" dy="16.25">handle_request()</tspan>
</text>
<path d="M400 282 L400 298" fill="none" stroke="#6d28d9" stroke-width="2" marker-end="url(#arrowhead)" opacity="1"/>
<text x="520" y="305" fill="#64748b" font-size="11" font-family='"Cascadia Code", "Fira Code", monospace' text-anchor="start" opacity="1">
<tspan x="520" dy="11">_convert_to_internal_request()</tspan>
<tspan x="520" dy="13.75">→ GenerateReqInput</tspan>
<tspan x="520" dy="13.75">→ EmbeddingReqInput</tspan>
</text>
<rect x="250" y="380" width="300" height="40" rx="8" fill="#fef3c7" stroke="#b45309" stroke-width="2" opacity="1"/>
<text x="400" y="388" fill="#b45309" font-size="12" font-family='"Cascadia Code", "Fira Code", monospace' text-anchor="middle" opacity="1">
<tspan x="400" dy="12">GenerateReqInput / EmbeddingReqInput</tspan>
</text>
<path d="M160 282 L360 378" fill="none" stroke="#1e3a5f" stroke-width="2" marker-end="url(#arrowhead)" opacity="1"/>
<path d="M400 357 L400 378" fill="none" stroke="#6d28d9" stroke-width="2" marker-end="url(#arrowhead)" opacity="1"/>
<path d="M640 282 L440 378" fill="none" stroke="#1e3a5f" stroke-width="2" marker-end="url(#arrowhead)" opacity="1"/>
<path d="M400 422 L400 460" fill="none" stroke="#b45309" stroke-width="2" marker-end="url(#arrowhead)" opacity="1"/>
<rect x="60" y="462" width="680" height="200" rx="8" fill="#a7f3d0" stroke="#047857" stroke-width="2" stroke-dasharray="8 4" opacity="0.2"/>
<text x="75" y="470" fill="#047857" font-size="15" font-family='"Cascadia Code", "Fira Code", monospace' text-anchor="start" opacity="1">
<tspan x="75" dy="15">TokenizerManager (Main Process)</tspan>
</text>
<rect x="80" y="500" width="160" height="50" rx="8" fill="#a7f3d0" stroke="#047857" stroke-width="2" opacity="1"/>
<text x="160" y="508" fill="#047857" font-size="12" font-family='"Cascadia Code", "Fira Code", monospace' text-anchor="middle" opacity="1">
<tspan x="160" dy="12">HF Tokenizer</tspan>
<tspan x="160" dy="15">text → input_ids</tspan>
</text>
<path d="M242 525 L290 525" fill="none" stroke="#047857" stroke-width="2" marker-end="url(#arrowhead)" opacity="1"/>
<rect x="292" y="500" width="200" height="50" rx="8" fill="#fef3c7" stroke="#b45309" stroke-width="2" opacity="1"/>
<text x="392" y="508" fill="#b45309" font-size="11" font-family='"Cascadia Code", "Fira Code", monospace' text-anchor="middle" opacity="1">
<tspan x="392" dy="11">TokenizedGenerateReqInput</tspan>
<tspan x="392" dy="13.75">+ SamplingParams</tspan>
</text>
<path d="M494 525 L542 525" fill="none" stroke="#b45309" stroke-width="2" marker-end="url(#arrowhead)" opacity="1"/>
<rect x="544" y="500" width="170" height="50" rx="8" fill="#3b82f6" stroke="#1e3a5f" stroke-width="2" opacity="1"/>
<text x="629" y="508" fill="#ffffff" font-size="12" font-family='"Cascadia Code", "Fira Code", monospace' text-anchor="middle" opacity="1">
<tspan x="629" dy="12">ZMQ PUSH</tspan>
<tspan x="629" dy="15">send_to_scheduler</tspan>
</text>
<rect x="80" y="570" width="160" height="50" rx="8" fill="#a7f3d0" stroke="#047857" stroke-width="2" opacity="1"/>
<text x="160" y="578" fill="#047857" font-size="12" font-family='"Cascadia Code", "Fira Code", monospace' text-anchor="middle" opacity="1">
<tspan x="160" dy="12">ReqState</tspan>
<tspan x="160" dy="15">asyncio.Event notify</tspan>
</text>
<rect x="292" y="570" width="200" height="50" rx="8" fill="#a7f3d0" stroke="#047857" stroke-width="2" opacity="1"/>
<text x="392" y="578" fill="#047857" font-size="12" font-family='"Cascadia Code", "Fira Code", monospace' text-anchor="middle" opacity="1">
<tspan x="392" dy="12">handle_loop()</tspan>
<tspan x="392" dy="15">recv_from_detokenizer</tspan>
</text>
<path d="M290 595 L242 595" fill="none" stroke="#047857" stroke-width="2" marker-end="url(#arrowhead)" opacity="1"/>
<path d="M629 552 L629 610" fill="none" stroke="#1e3a5f" stroke-width="2" marker-end="url(#arrowhead)" opacity="1"/>
<text x="640" y="565" fill="#64748b" font-size="11" font-family='"Cascadia Code", "Fira Code", monospace' text-anchor="start" opacity="1">
<tspan x="640" dy="11">ZMQ IPC ↓</tspan>
</text>
<rect x="530" y="700" width="200" height="60" rx="8" fill="#60a5fa" stroke="#1e3a5f" stroke-width="2" opacity="1"/>
<text x="630" y="710" fill="#ffffff" font-size="12" font-family='"Cascadia Code", "Fira Code", monospace' text-anchor="middle" opacity="1">
<tspan x="630" dy="12">Scheduler</tspan>
<tspan x="630" dy="15">Schedule + Model Inference + Sampling</tspan>
</text>
<text x="620" y="765" fill="#64748b" font-size="11" font-family='"Cascadia Code", "Fira Code", monospace' text-anchor="middle" opacity="1">
<tspan x="620" dy="11">→ See 03-scheduler</tspan>
</text>
<path d="M528 730 L450 730" fill="none" stroke="#1e3a5f" stroke-width="2" marker-end="url(#arrowhead)" opacity="1"/>
<rect x="280" y="710" width="168" height="40" rx="8" fill="#fef3c7" stroke="#b45309" stroke-width="2" opacity="1"/>
<text x="364" y="720" fill="#b45309" font-size="13" font-family='"Cascadia Code", "Fira Code", monospace' text-anchor="middle" opacity="1">
<tspan x="364" dy="13">BatchTokenIDOut</tspan>
</text>
<path d="M278 730 L230 730" fill="none" stroke="#b45309" stroke-width="2" marker-end="url(#arrowhead)" opacity="1"/>
<rect x="60" y="700" width="168" height="60" rx="8" fill="#fee2e2" stroke="#dc2626" stroke-width="2" opacity="1"/>
<text x="144" y="710" fill="#dc2626" font-size="12" font-family='"Cascadia Code", "Fira Code", monospace' text-anchor="middle" opacity="1">
<tspan x="144" dy="12">DetokenizerManager</tspan>
<tspan x="144" dy="15">Incremental Detokenize</tspan>
</text>
<path d="M144 698 L144 660" fill="none" stroke="#dc2626" stroke-width="2" marker-end="url(#arrowhead)" opacity="1"/>
<text x="155" y="675" fill="#64748b" font-size="11" font-family='"Cascadia Code", "Fira Code", monospace' text-anchor="start" opacity="1">
<tspan x="155" dy="11">BatchStrOut ↑</tspan>
</text>
<path d="M160 568 L60 518 L60 468 L400 468" fill="none" stroke="#047857" stroke-width="2" stroke-dasharray="8 4" marker-end="url(#arrowhead)" opacity="1"/>
<ellipse cx="670" cy="465" rx="70" ry="25" fill="#a7f3d0" stroke="#047857" stroke-width="2" opacity="1"/>
<text x="670" y="450" fill="#047857" font-size="11" font-family='"Cascadia Code", "Fira Code", monospace' text-anchor="middle" opacity="1">
<tspan x="670" dy="11">JSON / SSE</tspan>
<tspan x="670" dy="13.75">HTTP Response</tspan>
</text>
<text x="60" y="766" fill="#64748b" font-size="11" font-family='"Cascadia Code", "Fira Code", monospace' text-anchor="start" opacity="1">
<tspan x="60" dy="11">DecodeStatus: surr_offset</tspan>
<tspan x="60" dy="13.75">read_offset / sent_offset</tspan>
<tspan x="60" dy="13.75">Unicode boundary handling</tspan>
</text>
<text x="60" y="630" fill="#dc2626" font-size="11" font-family='"Cascadia Code", "Fira Code", monospace' text-anchor="start" opacity="1">
<tspan x="60" dy="11">Subprocess 2</tspan>
</text>
<text x="530" y="630" fill="#1e3a5f" font-size="11" font-family='"Cascadia Code", "Fira Code", monospace' text-anchor="start" opacity="1">
<tspan x="530" dy="11">Subprocess 1</tspan>
</text>
<path d="M60 648 L740 648" fill="none" stroke="#64748b" stroke-width="1" stroke-dasharray="8 4" opacity="1"/>
</svg>
